<svg width="24" height="24" viewBox="0 0 24 24" fill="currentColor" xmlns="http://www.w3.org/2000/svg">
<path d="M13.8499 3.40424L13.8503 3.40452L19.6101 7.43442C20.039 7.73461 20.4592 8.23876 20.7729 8.83959C21.0865 9.44041 21.2602 10.0739 21.2602 10.6V17.38C21.2602 19.5158 19.526 21.25 17.3902 21.25H6.61023C4.47656 21.25 2.74023 19.5079 2.74023 17.37V10.47C2.74023 9.98334 2.89706 9.38223 3.1831 8.80129C3.46893 8.22077 3.85184 7.72532 4.24151 7.42138L4.24167 7.42125L9.2496 3.51286C9.24994 3.5126 9.25027 3.51234 9.25061 3.51208C10.5009 2.54415 12.5495 2.49312 13.8499 3.40424ZM12.0002 19.5C12.8244 19.5 13.5002 18.8242 13.5002 18V15C13.5002 14.1758 12.8244 13.5 12.0002 13.5C11.176 13.5 10.5002 14.1758 10.5002 15V18C10.5002 18.8242 11.176 19.5 12.0002 19.5Z" fill="#B0B0B0" stroke="#B0B0B0" stroke-width="1.5"/>
</svg>
