<svg width="164" height="30" viewBox="0 0 164 30" fill="none" xmlns="http://www.w3.org/2000/svg">
<path d="M29.7019 15C29.7019 22.8413 23.3457 29.1962 15.5105 29.1962C7.67528 29.1962 1.31152 22.8337 1.31152 15H29.7019Z" fill="#00CC5C"/>
<path d="M29.7019 15H1.31152C1.31152 7.15872 7.66769 0.811401 15.5029 0.811401C23.3381 0.811401 29.6943 7.16631 29.6943 15H29.7019Z" fill="#00FF7F"/>
<path d="M15.503 30C7.22783 30 0.5 23.2735 0.5 15C0.5 6.72649 7.22783 0 15.503 0C15.9505 0 16.3146 0.364004 16.3146 0.811426C16.3146 1.25885 15.9505 1.62285 15.503 1.62285C8.12285 1.61527 2.11559 7.62134 2.11559 15C2.11559 22.3787 8.12285 28.3847 15.503 28.3847C22.8831 28.3847 28.8904 22.3787 28.8904 15C28.8904 11.8225 27.7526 8.7361 25.6971 6.32457C25.4089 5.98332 25.4468 5.47523 25.7881 5.18706C26.1295 4.89889 26.6376 4.9368 26.9259 5.27806C29.2317 7.98534 30.506 11.4358 30.506 15C30.506 23.2735 23.7781 30 15.503 30Z" fill="#545360"/>
<path d="M15.6546 24.9722C11.8166 24.9722 8.3351 23.228 6.75744 20.5056C6.53747 20.1188 6.66642 19.6259 7.05325 19.3984C7.44008 19.1709 7.9331 19.3074 8.16065 19.6942C9.45009 21.9237 12.3854 23.3494 15.6546 23.3494C15.6849 23.3494 15.7076 23.3494 15.738 23.3494C18.8933 23.3266 21.5253 21.9616 22.792 19.7017C23.0119 19.315 23.5049 19.1709 23.8918 19.3908C24.2786 19.6107 24.4227 20.1037 24.2028 20.4904C22.6554 23.2659 19.4925 24.9343 15.7532 24.9646C15.7228 24.9646 15.6925 24.9646 15.6546 24.9646V24.9722Z" fill="#545360"/>
<path d="M21.1085 5.79373C20.661 5.79373 20.2969 5.42973 20.2969 4.98231V0.811426C20.2969 0.364004 20.661 0 21.1085 0C21.556 0 21.92 0.364004 21.92 0.811426V4.98989C21.92 5.43731 21.556 5.80131 21.1085 5.80131V5.79373Z" fill="#545360"/>
<path d="M23.194 3.7083H19.0147C18.5672 3.7083 18.2031 3.3443 18.2031 2.89687C18.2031 2.44945 18.5672 2.08545 19.0147 2.08545H23.194C23.6415 2.08545 24.0056 2.44945 24.0056 2.89687C24.0056 3.3443 23.6415 3.7083 23.194 3.7083Z" fill="#545360"/>
<path d="M50.325 6.46106C53.8369 6.46106 56.264 8.79675 56.264 12.323C56.264 15.8493 53.761 18.185 50.1506 18.185H46.9422V23.5844H43.3545V6.46106H50.325ZM46.9422 15.3867H49.3618C51.4173 15.3867 52.6157 14.2947 52.6157 12.3382C52.6157 10.3817 51.4249 9.29726 49.3769 9.29726H46.9422V15.3867Z" fill="#32313E"/>
<path d="M58.168 6.46106H61.5736V13.1345H61.6419C62.3169 11.5344 63.705 10.6319 65.6467 10.6319C68.4759 10.6319 70.0915 12.4595 70.0915 15.4019V23.592H66.6252V16.1375C66.6252 14.4995 65.8212 13.4985 64.2359 13.4985C62.6507 13.4985 61.6343 14.6512 61.6343 16.3271V23.592H58.168V6.46106Z" fill="#32313E"/>
<path d="M71.8135 19.9368C71.8135 17.6238 73.5959 16.2816 76.7664 16.092L79.9749 15.9024V15.0606C79.9749 13.87 79.1405 13.1875 77.8359 13.1875C76.5313 13.1875 75.7197 13.8321 75.5528 14.7649H72.3823C72.5113 12.2927 74.6123 10.594 77.9876 10.594C81.3629 10.594 83.3805 12.2775 83.3805 14.8407V23.592H80.028V21.643H79.9597C79.2467 22.9929 77.669 23.7891 76.0762 23.7891C73.6566 23.7891 71.8135 22.2194 71.8135 19.9292V19.9368ZM79.9673 18.9282V18.003L77.2822 18.1698C75.9852 18.2684 75.2495 18.8448 75.2495 19.7472C75.2495 20.6951 76.0307 21.2942 77.2064 21.2942C78.7158 21.2942 79.9597 20.3083 79.9597 18.9282H79.9673Z" fill="#32313E"/>
<path d="M85.6104 10.867H88.9629V13.1572H89.0312C89.4787 11.5419 90.5633 10.6622 92.0575 10.6622C92.4595 10.6622 92.8084 10.7229 93.0436 10.7911V13.8397C92.7554 13.7183 92.2851 13.6349 91.7845 13.6349C90.0779 13.6349 89.0767 14.6814 89.0767 16.4711V23.5844H85.6104V10.867Z" fill="#32313E"/>
<path d="M94.4541 10.867H97.8066V13.1723H97.8749C98.4058 11.6405 99.7711 10.6319 101.508 10.6319C103.351 10.6319 104.633 11.5798 105.058 13.2406H105.126C105.695 11.6405 107.22 10.6319 109.078 10.6319C111.573 10.6319 113.25 12.3382 113.25 14.9089V23.5995H109.783V15.7735C109.783 14.3023 109.047 13.4908 107.705 13.4908C106.362 13.4908 105.521 14.4539 105.521 15.8645V23.592H102.183V15.6597C102.183 14.2947 101.409 13.4908 100.128 13.4908C98.8458 13.4908 97.9204 14.4843 97.9204 15.91V23.592H94.4541V10.867Z" fill="#32313E"/>
<path d="M131.635 23.592H120.554V6.46106H124.141V20.6269H131.635V23.592Z" fill="#32313E"/>
<path d="M133.402 7.67439C133.402 6.6658 134.206 5.8847 135.253 5.8847C136.3 5.8847 137.104 6.6658 137.104 7.67439C137.104 8.68299 136.292 9.46408 135.253 9.46408C134.214 9.46408 133.402 8.66782 133.402 7.67439ZM133.524 10.867H136.99V23.592H133.524V10.867Z" fill="#32313E"/>
<path d="M146.563 23.592H142.641L138.234 10.867H141.951L144.598 20.5283H144.666L147.306 10.867H150.932L146.563 23.592Z" fill="#32313E"/>
<path d="M163.386 19.6941C163.006 22.1891 160.723 23.8574 157.575 23.8574C153.654 23.8574 151.303 21.3549 151.303 17.2826C151.303 13.2103 153.677 10.5864 157.439 10.5864C161.201 10.5864 163.484 13.089 163.484 16.9641V18.0182H154.708V18.2305C154.708 20.0505 155.861 21.2942 157.629 21.2942C158.903 21.2942 159.874 20.6648 160.192 19.6941H163.378H163.386ZM154.754 15.8948H160.154C160.086 14.2644 159.024 13.1496 157.484 13.1496C155.945 13.1496 154.875 14.3023 154.754 15.8948Z" fill="#32313E"/>
</svg>
